<svg xmlns="http://www.w3.org/2000/svg" width="1060" height="560" viewBox="0 0 1060 560" role="img">
<style>
text{font-family:Arial,Helvetica,sans-serif;fill:#24313d}
.title{font-size:22px;font-weight:700}
.subtitle{font-size:12px;fill:#62707f}
.axis{stroke:#8996a3;stroke-width:1}
.grid{stroke:#d9e0e6;stroke-width:1}
.label{font-size:11px;fill:#62707f}
</style>
<rect width="1060" height="560" fill="#fbfcfd"/>
<text class="title" x="28" y="32">Brasil: participação das fontes por ano</text>
<text class="subtitle" x="28" y="52">% da eletricidade por fonte</text>
<text class="label" text-anchor="end" x="138" y="110.0">Hydro</text>
<rect x="150.0" y="82.0" width="29.5" height="45.6" fill="#2a9d8f"/>
<text class="label" text-anchor="middle" x="164.5" y="110.0" fill="#17333a">91</text>
<rect x="179.0" y="82.0" width="29.5" height="45.6" fill="#2d9d8e"/>
<text class="label" text-anchor="middle" x="193.5" y="110.0" fill="#17333a">91</text>
<rect x="208.0" y="82.0" width="29.5" height="45.6" fill="#2d9d8e"/>
<text class="label" text-anchor="middle" x="222.5" y="110.0" fill="#17333a">91</text>
<rect x="237.0" y="82.0" width="29.5" height="45.6" fill="#3a9f8a"/>
<text class="label" text-anchor="middle" x="251.5" y="110.0" fill="#17333a">88</text>
<rect x="266.0" y="82.0" width="29.5" height="45.6" fill="#3b9f89"/>
<text class="label" text-anchor="middle" x="280.5" y="110.0" fill="#17333a">87</text>
<rect x="295.0" y="82.0" width="29.5" height="45.6" fill="#53a281"/>
<text class="label" text-anchor="middle" x="309.5" y="110.0" fill="#17333a">82</text>
<rect x="324.0" y="82.0" width="29.5" height="45.6" fill="#4ea183"/>
<text class="label" text-anchor="middle" x="338.5" y="110.0" fill="#17333a">83</text>
<rect x="353.0" y="82.0" width="29.5" height="45.6" fill="#49a184"/>
<text class="label" text-anchor="middle" x="367.5" y="110.0" fill="#17333a">84</text>
<rect x="382.0" y="82.0" width="29.5" height="45.6" fill="#4da183"/>
<text class="label" text-anchor="middle" x="396.5" y="110.0" fill="#17333a">83</text>
<rect x="411.0" y="82.0" width="29.5" height="45.6" fill="#49a184"/>
<text class="label" text-anchor="middle" x="425.5" y="110.0" fill="#17333a">84</text>
<rect x="440.0" y="82.0" width="29.5" height="45.6" fill="#4ca183"/>
<text class="label" text-anchor="middle" x="454.5" y="110.0" fill="#17333a">83</text>
<rect x="469.0" y="82.0" width="29.5" height="45.6" fill="#48a184"/>
<text class="label" text-anchor="middle" x="483.5" y="110.0" fill="#17333a">84</text>
<rect x="498.0" y="82.0" width="29.5" height="45.6" fill="#5aa37e"/>
<text class="label" text-anchor="middle" x="512.5" y="110.0" fill="#17333a">80</text>
<rect x="527.0" y="82.0" width="29.5" height="45.6" fill="#49a184"/>
<text class="label" text-anchor="middle" x="541.5" y="110.0" fill="#17333a">84</text>
<rect x="556.0" y="82.0" width="29.5" height="45.6" fill="#61a47c"/>
<text class="label" text-anchor="middle" x="570.5" y="110.0" fill="#17333a">78</text>
<rect x="585.0" y="82.0" width="29.5" height="45.6" fill="#57a27f"/>
<text class="label" text-anchor="middle" x="599.5" y="110.0" fill="#17333a">81</text>
<rect x="614.0" y="82.0" width="29.5" height="45.6" fill="#6da577"/>
<text class="label" text-anchor="middle" x="628.5" y="110.0" fill="#17333a">75</text>
<rect x="643.0" y="82.0" width="29.5" height="45.6" fill="#89a86e"/>
<text class="label" text-anchor="middle" x="657.5" y="110.0" fill="#17333a">68</text>
<rect x="672.0" y="82.0" width="29.5" height="45.6" fill="#9fab66"/>
<text class="label" text-anchor="middle" x="686.5" y="110.0" fill="#17333a">63</text>
<rect x="701.0" y="82.0" width="29.5" height="45.6" fill="#a5ac64"/>
<text class="label" text-anchor="middle" x="715.5" y="110.0" fill="#17333a">62</text>
<rect x="730.0" y="82.0" width="29.5" height="45.6" fill="#95aa6a"/>
<text class="label" text-anchor="middle" x="744.5" y="110.0" fill="#17333a">66</text>
<rect x="759.0" y="82.0" width="29.5" height="45.6" fill="#a0ab65"/>
<text class="label" text-anchor="middle" x="773.5" y="110.0" fill="#17333a">63</text>
<rect x="788.0" y="82.0" width="29.5" height="45.6" fill="#99aa68"/>
<text class="label" text-anchor="middle" x="802.5" y="110.0" fill="#17333a">65</text>
<rect x="817.0" y="82.0" width="29.5" height="45.6" fill="#a1ab65"/>
<text class="label" text-anchor="middle" x="831.5" y="110.0" fill="#17333a">63</text>
<rect x="846.0" y="82.0" width="29.5" height="45.6" fill="#a0ab66"/>
<text class="label" text-anchor="middle" x="860.5" y="110.0" fill="#17333a">63</text>
<rect x="875.0" y="82.0" width="29.5" height="45.6" fill="#c1af5a"/>
<text class="label" text-anchor="middle" x="889.5" y="110.0" fill="#17333a">55</text>
<rect x="904.0" y="82.0" width="29.5" height="45.6" fill="#a0ab66"/>
<text class="label" text-anchor="middle" x="918.5" y="110.0" fill="#17333a">63</text>
<rect x="933.0" y="82.0" width="29.5" height="45.6" fill="#acad61"/>
<text class="label" text-anchor="middle" x="947.5" y="110.0" fill="#17333a">60</text>
<rect x="962.0" y="82.0" width="29.5" height="45.6" fill="#c0af5a"/>
<text class="label" text-anchor="middle" x="976.5" y="110.0" fill="#17333a">55</text>
<rect x="991.0" y="82.0" width="29.5" height="45.6" fill="#cfb155"/>
<text class="label" text-anchor="middle" x="1005.5" y="110.0" fill="#17333a">52</text>
<text class="label" text-anchor="end" x="138" y="155.1">Wind</text>
<rect x="150.0" y="127.1" width="29.5" height="45.6" fill="#f4f1e8"/>
<rect x="179.0" y="127.1" width="29.5" height="45.6" fill="#f4f1e8"/>
<rect x="208.0" y="127.1" width="29.5" height="45.6" fill="#f4f1e8"/>
<rect x="237.0" y="127.1" width="29.5" height="45.6" fill="#f4f1e8"/>
<rect x="266.0" y="127.1" width="29.5" height="45.6" fill="#f4f1e8"/>
<rect x="295.0" y="127.1" width="29.5" height="45.6" fill="#f4f1e8"/>
<rect x="324.0" y="127.1" width="29.5" height="45.6" fill="#f4f1e8"/>
<rect x="353.0" y="127.1" width="29.5" height="45.6" fill="#f4f1e8"/>
<rect x="382.0" y="127.1" width="29.5" height="45.6" fill="#f4f1e8"/>
<rect x="411.0" y="127.1" width="29.5" height="45.6" fill="#f4f1e8"/>
<rect x="440.0" y="127.1" width="29.5" height="45.6" fill="#f4f1e8"/>
<rect x="469.0" y="127.1" width="29.5" height="45.6" fill="#f4f1e7"/>
<rect x="498.0" y="127.1" width="29.5" height="45.6" fill="#f4f1e7"/>
<rect x="527.0" y="127.1" width="29.5" height="45.6" fill="#f4f1e7"/>
<rect x="556.0" y="127.1" width="29.5" height="45.6" fill="#f4f0e7"/>
<rect x="585.0" y="127.1" width="29.5" height="45.6" fill="#f4f0e6"/>
<rect x="614.0" y="127.1" width="29.5" height="45.6" fill="#f4f0e5"/>
<rect x="643.0" y="127.1" width="29.5" height="45.6" fill="#f4efe4"/>
<rect x="672.0" y="127.1" width="29.5" height="45.6" fill="#f4eee1"/>
<rect x="701.0" y="127.1" width="29.5" height="45.6" fill="#f3ecdb"/>
<rect x="730.0" y="127.1" width="29.5" height="45.6" fill="#f3e9d4"/>
<rect x="759.0" y="127.1" width="29.5" height="45.6" fill="#f2e7cf"/>
<rect x="788.0" y="127.1" width="29.5" height="45.6" fill="#f2e6cc"/>
<rect x="817.0" y="127.1" width="29.5" height="45.6" fill="#f2e5ca"/>
<rect x="846.0" y="127.1" width="29.5" height="45.6" fill="#f2e5c9"/>
<rect x="875.0" y="127.1" width="29.5" height="45.6" fill="#f1e2c2"/>
<rect x="904.0" y="127.1" width="29.5" height="45.6" fill="#f1e1bf"/>
<rect x="933.0" y="127.1" width="29.5" height="45.6" fill="#f1dfba"/>
<rect x="962.0" y="127.1" width="29.5" height="45.6" fill="#f0deb6"/>
<rect x="991.0" y="127.1" width="29.5" height="45.6" fill="#f0dcb2"/>
<text class="label" text-anchor="end" x="138" y="200.2">Solar</text>
<rect x="150.0" y="172.2" width="29.5" height="45.6" fill="#f4f1e8"/>
<rect x="179.0" y="172.2" width="29.5" height="45.6" fill="#f4f1e8"/>
<rect x="208.0" y="172.2" width="29.5" height="45.6" fill="#f4f1e8"/>
<rect x="237.0" y="172.2" width="29.5" height="45.6" fill="#f4f1e8"/>
<rect x="266.0" y="172.2" width="29.5" height="45.6" fill="#f4f1e8"/>
<rect x="295.0" y="172.2" width="29.5" height="45.6" fill="#f4f1e8"/>
<rect x="324.0" y="172.2" width="29.5" height="45.6" fill="#f4f1e8"/>
<rect x="353.0" y="172.2" width="29.5" height="45.6" fill="#f4f1e8"/>
<rect x="382.0" y="172.2" width="29.5" height="45.6" fill="#f4f1e8"/>
<rect x="411.0" y="172.2" width="29.5" height="45.6" fill="#f4f1e8"/>
<rect x="440.0" y="172.2" width="29.5" height="45.6" fill="#f4f1e8"/>
<rect x="469.0" y="172.2" width="29.5" height="45.6" fill="#f4f1e8"/>
<rect x="498.0" y="172.2" width="29.5" height="45.6" fill="#f4f1e8"/>
<rect x="527.0" y="172.2" width="29.5" height="45.6" fill="#f4f1e8"/>
<rect x="556.0" y="172.2" width="29.5" height="45.6" fill="#f4f1e8"/>
<rect x="585.0" y="172.2" width="29.5" height="45.6" fill="#f4f1e8"/>
<rect x="614.0" y="172.2" width="29.5" height="45.6" fill="#f4f1e8"/>
<rect x="643.0" y="172.2" width="29.5" height="45.6" fill="#f4f1e8"/>
<rect x="672.0" y="172.2" width="29.5" height="45.6" fill="#f4f1e8"/>
<rect x="701.0" y="172.2" width="29.5" height="45.6" fill="#f4f1e8"/>
<rect x="730.0" y="172.2" width="29.5" height="45.6" fill="#f4f1e8"/>
<rect x="759.0" y="172.2" width="29.5" height="45.6" fill="#f4f1e8"/>
<rect x="788.0" y="172.2" width="29.5" height="45.6" fill="#f4f0e6"/>
<rect x="817.0" y="172.2" width="29.5" height="45.6" fill="#f4f0e4"/>
<rect x="846.0" y="172.2" width="29.5" height="45.6" fill="#f4efe2"/>
<rect x="875.0" y="172.2" width="29.5" height="45.6" fill="#f3eedf"/>
<rect x="904.0" y="172.2" width="29.5" height="45.6" fill="#f3ebd9"/>
<rect x="933.0" y="172.2" width="29.5" height="45.6" fill="#f2e7d0"/>
<rect x="962.0" y="172.2" width="29.5" height="45.6" fill="#f2e4c7"/>
<rect x="991.0" y="172.2" width="29.5" height="45.6" fill="#f1e1c0"/>
<text class="label" text-anchor="end" x="138" y="245.3">Biofuel</text>
<rect x="150.0" y="217.3" width="29.5" height="45.6" fill="#f4f1e8"/>
<rect x="179.0" y="217.3" width="29.5" height="45.6" fill="#f4f1e8"/>
<rect x="208.0" y="217.3" width="29.5" height="45.6" fill="#f4f1e8"/>
<rect x="237.0" y="217.3" width="29.5" height="45.6" fill="#f4f1e8"/>
<rect x="266.0" y="217.3" width="29.5" height="45.6" fill="#f3eee0"/>
<rect x="295.0" y="217.3" width="29.5" height="45.6" fill="#f3eddf"/>
<rect x="324.0" y="217.3" width="29.5" height="45.6" fill="#f3edde"/>
<rect x="353.0" y="217.3" width="29.5" height="45.6" fill="#f3eddd"/>
<rect x="382.0" y="217.3" width="29.5" height="45.6" fill="#f3eddd"/>
<rect x="411.0" y="217.3" width="29.5" height="45.6" fill="#f3ecdc"/>
<rect x="440.0" y="217.3" width="29.5" height="45.6" fill="#f3ecdc"/>
<rect x="469.0" y="217.3" width="29.5" height="45.6" fill="#f3ecda"/>
<rect x="498.0" y="217.3" width="29.5" height="45.6" fill="#f3ebd9"/>
<rect x="527.0" y="217.3" width="29.5" height="45.6" fill="#f3ead7"/>
<rect x="556.0" y="217.3" width="29.5" height="45.6" fill="#f3e9d3"/>
<rect x="585.0" y="217.3" width="29.5" height="45.6" fill="#f3e9d3"/>
<rect x="614.0" y="217.3" width="29.5" height="45.6" fill="#f2e8d2"/>
<rect x="643.0" y="217.3" width="29.5" height="45.6" fill="#f2e7cf"/>
<rect x="672.0" y="217.3" width="29.5" height="45.6" fill="#f2e6cd"/>
<rect x="701.0" y="217.3" width="29.5" height="45.6" fill="#f2e6cb"/>
<rect x="730.0" y="217.3" width="29.5" height="45.6" fill="#f2e5ca"/>
<rect x="759.0" y="217.3" width="29.5" height="45.6" fill="#f2e5c9"/>
<rect x="788.0" y="217.3" width="29.5" height="45.6" fill="#f2e5c9"/>
<rect x="817.0" y="217.3" width="29.5" height="45.6" fill="#f2e5ca"/>
<rect x="846.0" y="217.3" width="29.5" height="45.6" fill="#f2e5c8"/>
<rect x="875.0" y="217.3" width="29.5" height="45.6" fill="#f2e6cb"/>
<rect x="904.0" y="217.3" width="29.5" height="45.6" fill="#f2e6cc"/>
<rect x="933.0" y="217.3" width="29.5" height="45.6" fill="#f2e6cc"/>
<rect x="962.0" y="217.3" width="29.5" height="45.6" fill="#f2e7cd"/>
<rect x="991.0" y="217.3" width="29.5" height="45.6" fill="#f2e7cf"/>
<text class="label" text-anchor="end" x="138" y="290.4">Other renewable</text>
<rect x="150.0" y="262.4" width="29.5" height="45.6" fill="#f3eee0"/>
<rect x="179.0" y="262.4" width="29.5" height="45.6" fill="#f3eee0"/>
<rect x="208.0" y="262.4" width="29.5" height="45.6" fill="#f3eee0"/>
<rect x="237.0" y="262.4" width="29.5" height="45.6" fill="#f3eedf"/>
<rect x="266.0" y="262.4" width="29.5" height="45.6" fill="#f3eee0"/>
<rect x="295.0" y="262.4" width="29.5" height="45.6" fill="#f3eddf"/>
<rect x="324.0" y="262.4" width="29.5" height="45.6" fill="#f3edde"/>
<rect x="353.0" y="262.4" width="29.5" height="45.6" fill="#f3eddd"/>
<rect x="382.0" y="262.4" width="29.5" height="45.6" fill="#f3eddd"/>
<rect x="411.0" y="262.4" width="29.5" height="45.6" fill="#f3ecdc"/>
<rect x="440.0" y="262.4" width="29.5" height="45.6" fill="#f3ecdc"/>
<rect x="469.0" y="262.4" width="29.5" height="45.6" fill="#f3ecda"/>
<rect x="498.0" y="262.4" width="29.5" height="45.6" fill="#f3ebd9"/>
<rect x="527.0" y="262.4" width="29.5" height="45.6" fill="#f3ead7"/>
<rect x="556.0" y="262.4" width="29.5" height="45.6" fill="#f3e9d3"/>
<rect x="585.0" y="262.4" width="29.5" height="45.6" fill="#f3e9d3"/>
<rect x="614.0" y="262.4" width="29.5" height="45.6" fill="#f2e8d2"/>
<rect x="643.0" y="262.4" width="29.5" height="45.6" fill="#f2e7cf"/>
<rect x="672.0" y="262.4" width="29.5" height="45.6" fill="#f2e6cd"/>
<rect x="701.0" y="262.4" width="29.5" height="45.6" fill="#f2e6cb"/>
<rect x="730.0" y="262.4" width="29.5" height="45.6" fill="#f2e5ca"/>
<rect x="759.0" y="262.4" width="29.5" height="45.6" fill="#f2e5c9"/>
<rect x="788.0" y="262.4" width="29.5" height="45.6" fill="#f2e5c9"/>
<rect x="817.0" y="262.4" width="29.5" height="45.6" fill="#f2e5ca"/>
<rect x="846.0" y="262.4" width="29.5" height="45.6" fill="#f2e5c8"/>
<rect x="875.0" y="262.4" width="29.5" height="45.6" fill="#f2e6cb"/>
<rect x="904.0" y="262.4" width="29.5" height="45.6" fill="#f2e6cc"/>
<rect x="933.0" y="262.4" width="29.5" height="45.6" fill="#f2e6cc"/>
<rect x="962.0" y="262.4" width="29.5" height="45.6" fill="#f2e7cd"/>
<rect x="991.0" y="262.4" width="29.5" height="45.6" fill="#f2e7cf"/>
<text class="label" text-anchor="end" x="138" y="335.5">Nuclear</text>
<rect x="150.0" y="307.6" width="29.5" height="45.6" fill="#f4f0e5"/>
<rect x="179.0" y="307.6" width="29.5" height="45.6" fill="#f4f0e4"/>
<rect x="208.0" y="307.6" width="29.5" height="45.6" fill="#f4f0e5"/>
<rect x="237.0" y="307.6" width="29.5" height="45.6" fill="#f4efe4"/>
<rect x="266.0" y="307.6" width="29.5" height="45.6" fill="#f4efe2"/>
<rect x="295.0" y="307.6" width="29.5" height="45.6" fill="#f3ebd9"/>
<rect x="324.0" y="307.6" width="29.5" height="45.6" fill="#f3ecda"/>
<rect x="353.0" y="307.6" width="29.5" height="45.6" fill="#f3ecdb"/>
<rect x="382.0" y="307.6" width="29.5" height="45.6" fill="#f3edde"/>
<rect x="411.0" y="307.6" width="29.5" height="45.6" fill="#f3eee0"/>
<rect x="440.0" y="307.6" width="29.5" height="45.6" fill="#f3eddd"/>
<rect x="469.0" y="307.6" width="29.5" height="45.6" fill="#f3eddf"/>
<rect x="498.0" y="307.6" width="29.5" height="45.6" fill="#f3edde"/>
<rect x="527.0" y="307.6" width="29.5" height="45.6" fill="#f3edde"/>
<rect x="556.0" y="307.6" width="29.5" height="45.6" fill="#f3edde"/>
<rect x="585.0" y="307.6" width="29.5" height="45.6" fill="#f3edde"/>
<rect x="614.0" y="307.6" width="29.5" height="45.6" fill="#f3edde"/>
<rect x="643.0" y="307.6" width="29.5" height="45.6" fill="#f3eddf"/>
<rect x="672.0" y="307.6" width="29.5" height="45.6" fill="#f3eedf"/>
<rect x="701.0" y="307.6" width="29.5" height="45.6" fill="#f3eedf"/>
<rect x="730.0" y="307.6" width="29.5" height="45.6" fill="#f3eddf"/>
<rect x="759.0" y="307.6" width="29.5" height="45.6" fill="#f3eddf"/>
<rect x="788.0" y="307.6" width="29.5" height="45.6" fill="#f3eedf"/>
<rect x="817.0" y="307.6" width="29.5" height="45.6" fill="#f3eedf"/>
<rect x="846.0" y="307.6" width="29.5" height="45.6" fill="#f3eee0"/>
<rect x="875.0" y="307.6" width="29.5" height="45.6" fill="#f3eee0"/>
<rect x="904.0" y="307.6" width="29.5" height="45.6" fill="#f3eee1"/>
<rect x="933.0" y="307.6" width="29.5" height="45.6" fill="#f4eee1"/>
<rect x="962.0" y="307.6" width="29.5" height="45.6" fill="#f3eee1"/>
<rect x="991.0" y="307.6" width="29.5" height="45.6" fill="#f3eee1"/>
<text class="label" text-anchor="end" x="138" y="380.6">Gas</text>
<rect x="150.0" y="352.7" width="29.5" height="45.6" fill="#f4f1e7"/>
<rect x="179.0" y="352.7" width="29.5" height="45.6" fill="#f4f0e7"/>
<rect x="208.0" y="352.7" width="29.5" height="45.6" fill="#f4f0e7"/>
<rect x="237.0" y="352.7" width="29.5" height="45.6" fill="#f4f0e5"/>
<rect x="266.0" y="352.7" width="29.5" height="45.6" fill="#f4efe4"/>
<rect x="295.0" y="352.7" width="29.5" height="45.6" fill="#f3edde"/>
<rect x="324.0" y="352.7" width="29.5" height="45.6" fill="#f3ecdc"/>
<rect x="353.0" y="352.7" width="29.5" height="45.6" fill="#f3ecdc"/>
<rect x="382.0" y="352.7" width="29.5" height="45.6" fill="#f3ead7"/>
<rect x="411.0" y="352.7" width="29.5" height="45.6" fill="#f3ebd8"/>
<rect x="440.0" y="352.7" width="29.5" height="45.6" fill="#f3ebd9"/>
<rect x="469.0" y="352.7" width="29.5" height="45.6" fill="#f3ecdc"/>
<rect x="498.0" y="352.7" width="29.5" height="45.6" fill="#f3e9d3"/>
<rect x="527.0" y="352.7" width="29.5" height="45.6" fill="#f3edde"/>
<rect x="556.0" y="352.7" width="29.5" height="45.6" fill="#f2e8d0"/>
<rect x="585.0" y="352.7" width="29.5" height="45.6" fill="#f3ebd8"/>
<rect x="614.0" y="352.7" width="29.5" height="45.6" fill="#f2e6cb"/>
<rect x="643.0" y="352.7" width="29.5" height="45.6" fill="#f1e1bf"/>
<rect x="672.0" y="352.7" width="29.5" height="45.6" fill="#f1dfb9"/>
<rect x="701.0" y="352.7" width="29.5" height="45.6" fill="#f1dfb9"/>
<rect x="730.0" y="352.7" width="29.5" height="45.6" fill="#f2e4c7"/>
<rect x="759.0" y="352.7" width="29.5" height="45.6" fill="#f1e2c2"/>
<rect x="788.0" y="352.7" width="29.5" height="45.6" fill="#f2e5c9"/>
<rect x="817.0" y="352.7" width="29.5" height="45.6" fill="#f1e3c4"/>
<rect x="846.0" y="352.7" width="29.5" height="45.6" fill="#f2e4c8"/>
<rect x="875.0" y="352.7" width="29.5" height="45.6" fill="#f1dfbb"/>
<rect x="904.0" y="352.7" width="29.5" height="45.6" fill="#f3e9d3"/>
<rect x="933.0" y="352.7" width="29.5" height="45.6" fill="#f3ead5"/>
<rect x="962.0" y="352.7" width="29.5" height="45.6" fill="#f2e8d2"/>
<rect x="991.0" y="352.7" width="29.5" height="45.6" fill="#f2e7cf"/>
<text class="label" text-anchor="end" x="138" y="425.7">Coal</text>
<rect x="150.0" y="397.8" width="29.5" height="45.6" fill="#f4eee1"/>
<rect x="179.0" y="397.8" width="29.5" height="45.6" fill="#f3eee0"/>
<rect x="208.0" y="397.8" width="29.5" height="45.6" fill="#f3eee1"/>
<rect x="237.0" y="397.8" width="29.5" height="45.6" fill="#f3edde"/>
<rect x="266.0" y="397.8" width="29.5" height="45.6" fill="#f3eddd"/>
<rect x="295.0" y="397.8" width="29.5" height="45.6" fill="#f3ecdc"/>
<rect x="324.0" y="397.8" width="29.5" height="45.6" fill="#f3eddf"/>
<rect x="353.0" y="397.8" width="29.5" height="45.6" fill="#f3eee0"/>
<rect x="382.0" y="397.8" width="29.5" height="45.6" fill="#f3eddf"/>
<rect x="411.0" y="397.8" width="29.5" height="45.6" fill="#f3eddf"/>
<rect x="440.0" y="397.8" width="29.5" height="45.6" fill="#f3eedf"/>
<rect x="469.0" y="397.8" width="29.5" height="45.6" fill="#f3eee0"/>
<rect x="498.0" y="397.8" width="29.5" height="45.6" fill="#f3eedf"/>
<rect x="527.0" y="397.8" width="29.5" height="45.6" fill="#f3eee1"/>
<rect x="556.0" y="397.8" width="29.5" height="45.6" fill="#f3eee1"/>
<rect x="585.0" y="397.8" width="29.5" height="45.6" fill="#f3eee0"/>
<rect x="614.0" y="397.8" width="29.5" height="45.6" fill="#f3eddf"/>
<rect x="643.0" y="397.8" width="29.5" height="45.6" fill="#f3ecdb"/>
<rect x="672.0" y="397.8" width="29.5" height="45.6" fill="#f3ebd8"/>
<rect x="701.0" y="397.8" width="29.5" height="45.6" fill="#f3ebd8"/>
<rect x="730.0" y="397.8" width="29.5" height="45.6" fill="#f3ebd9"/>
<rect x="759.0" y="397.8" width="29.5" height="45.6" fill="#f3ecdb"/>
<rect x="788.0" y="397.8" width="29.5" height="45.6" fill="#f3ecdc"/>
<rect x="817.0" y="397.8" width="29.5" height="45.6" fill="#f3ecdc"/>
<rect x="846.0" y="397.8" width="29.5" height="45.6" fill="#f3edde"/>
<rect x="875.0" y="397.8" width="29.5" height="45.6" fill="#f3ecdb"/>
<rect x="904.0" y="397.8" width="29.5" height="45.6" fill="#f3eee1"/>
<rect x="933.0" y="397.8" width="29.5" height="45.6" fill="#f4eee2"/>
<rect x="962.0" y="397.8" width="29.5" height="45.6" fill="#f3eee1"/>
<rect x="991.0" y="397.8" width="29.5" height="45.6" fill="#f3eee0"/>
<text class="label" text-anchor="end" x="138" y="470.9">Oil</text>
<rect x="150.0" y="442.9" width="29.5" height="45.6" fill="#f3eddd"/>
<rect x="179.0" y="442.9" width="29.5" height="45.6" fill="#f3eddd"/>
<rect x="208.0" y="442.9" width="29.5" height="45.6" fill="#f3ecdc"/>
<rect x="237.0" y="442.9" width="29.5" height="45.6" fill="#f3ead7"/>
<rect x="266.0" y="442.9" width="29.5" height="45.6" fill="#f3ebd9"/>
<rect x="295.0" y="442.9" width="29.5" height="45.6" fill="#f3ead7"/>
<rect x="324.0" y="442.9" width="29.5" height="45.6" fill="#f3ecda"/>
<rect x="353.0" y="442.9" width="29.5" height="45.6" fill="#f3eddd"/>
<rect x="382.0" y="442.9" width="29.5" height="45.6" fill="#f3eddd"/>
<rect x="411.0" y="442.9" width="29.5" height="45.6" fill="#f3eddd"/>
<rect x="440.0" y="442.9" width="29.5" height="45.6" fill="#f3eddd"/>
<rect x="469.0" y="442.9" width="29.5" height="45.6" fill="#f3eddd"/>
<rect x="498.0" y="442.9" width="29.5" height="45.6" fill="#f3ecdb"/>
<rect x="527.0" y="442.9" width="29.5" height="45.6" fill="#f3eddd"/>
<rect x="556.0" y="442.9" width="29.5" height="45.6" fill="#f3eddd"/>
<rect x="585.0" y="442.9" width="29.5" height="45.6" fill="#f3eddf"/>
<rect x="614.0" y="442.9" width="29.5" height="45.6" fill="#f3ecdc"/>
<rect x="643.0" y="442.9" width="29.5" height="45.6" fill="#f3ebd9"/>
<rect x="672.0" y="442.9" width="29.5" height="45.6" fill="#f3e9d4"/>
<rect x="701.0" y="442.9" width="29.5" height="45.6" fill="#f3ead7"/>
<rect x="730.0" y="442.9" width="29.5" height="45.6" fill="#f3eedf"/>
<rect x="759.0" y="442.9" width="29.5" height="45.6" fill="#f3eddd"/>
<rect x="788.0" y="442.9" width="29.5" height="45.6" fill="#f3eedf"/>
<rect x="817.0" y="442.9" width="29.5" height="45.6" fill="#f3eee0"/>
<rect x="846.0" y="442.9" width="29.5" height="45.6" fill="#f3eee0"/>
<rect x="875.0" y="442.9" width="29.5" height="45.6" fill="#f3ecdc"/>
<rect x="904.0" y="442.9" width="29.5" height="45.6" fill="#f4efe2"/>
<rect x="933.0" y="442.9" width="29.5" height="45.6" fill="#f4efe2"/>
<rect x="962.0" y="442.9" width="29.5" height="45.6" fill="#f4efe2"/>
<rect x="991.0" y="442.9" width="29.5" height="45.6" fill="#f4efe2"/>
<text class="label" text-anchor="middle" x="164.5" y="526">1996</text>
<text class="label" text-anchor="middle" x="251.5" y="526">1999</text>
<text class="label" text-anchor="middle" x="338.5" y="526">2002</text>
<text class="label" text-anchor="middle" x="425.5" y="526">2005</text>
<text class="label" text-anchor="middle" x="512.5" y="526">2008</text>
<text class="label" text-anchor="middle" x="599.5" y="526">2011</text>
<text class="label" text-anchor="middle" x="686.5" y="526">2014</text>
<text class="label" text-anchor="middle" x="773.5" y="526">2017</text>
<text class="label" text-anchor="middle" x="860.5" y="526">2020</text>
<text class="label" text-anchor="middle" x="947.5" y="526">2023</text>
<text class="label" text-anchor="middle" x="1005.5" y="526">2025</text>
<rect x="150.0" y="530" width="4.2" height="10" fill="#f4f1e8"/>
<rect x="154.0" y="530" width="4.2" height="10" fill="#f4efe4"/>
<rect x="158.0" y="530" width="4.2" height="10" fill="#f3eee0"/>
<rect x="162.0" y="530" width="4.2" height="10" fill="#f3ecdc"/>
<rect x="166.0" y="530" width="4.2" height="10" fill="#f3ebd8"/>
<rect x="170.0" y="530" width="4.2" height="10" fill="#f3e9d4"/>
<rect x="174.0" y="530" width="4.2" height="10" fill="#f2e8d0"/>
<rect x="178.0" y="530" width="4.2" height="10" fill="#f2e6cc"/>
<rect x="182.0" y="530" width="4.2" height="10" fill="#f2e5c8"/>
<rect x="186.0" y="530" width="4.2" height="10" fill="#f1e3c4"/>
<rect x="190.0" y="530" width="4.2" height="10" fill="#f1e2c1"/>
<rect x="194.0" y="530" width="4.2" height="10" fill="#f1e0bd"/>
<rect x="198.0" y="530" width="4.2" height="10" fill="#f1deb9"/>
<rect x="202.0" y="530" width="4.2" height="10" fill="#f0ddb5"/>
<rect x="206.0" y="530" width="4.2" height="10" fill="#f0dbb1"/>
<rect x="210.0" y="530" width="4.2" height="10" fill="#f0daad"/>
<rect x="214.0" y="530" width="4.2" height="10" fill="#f0d8a9"/>
<rect x="218.0" y="530" width="4.2" height="10" fill="#efd7a5"/>
<rect x="222.0" y="530" width="4.2" height="10" fill="#efd5a1"/>
<rect x="226.0" y="530" width="4.2" height="10" fill="#efd49d"/>
<rect x="230.0" y="530" width="4.2" height="10" fill="#eed299"/>
<rect x="234.0" y="530" width="4.2" height="10" fill="#eed195"/>
<rect x="238.0" y="530" width="4.2" height="10" fill="#eecf91"/>
<rect x="242.0" y="530" width="4.2" height="10" fill="#eecd8d"/>
<rect x="246.0" y="530" width="4.2" height="10" fill="#edcc89"/>
<rect x="250.0" y="530" width="4.2" height="10" fill="#edca85"/>
<rect x="254.0" y="530" width="4.2" height="10" fill="#edc981"/>
<rect x="258.0" y="530" width="4.2" height="10" fill="#ecc77d"/>
<rect x="262.0" y="530" width="4.2" height="10" fill="#ecc679"/>
<rect x="266.0" y="530" width="4.2" height="10" fill="#ecc475"/>
<rect x="270.0" y="530" width="4.2" height="10" fill="#ecc372"/>
<rect x="274.0" y="530" width="4.2" height="10" fill="#ebc16e"/>
<rect x="278.0" y="530" width="4.2" height="10" fill="#ebc06a"/>
<rect x="282.0" y="530" width="4.2" height="10" fill="#ebbe66"/>
<rect x="286.0" y="530" width="4.2" height="10" fill="#ebbc62"/>
<rect x="290.0" y="530" width="4.2" height="10" fill="#eabb5e"/>
<rect x="294.0" y="530" width="4.2" height="10" fill="#eab95a"/>
<rect x="298.0" y="530" width="4.2" height="10" fill="#eab856"/>
<rect x="302.0" y="530" width="4.2" height="10" fill="#e9b652"/>
<rect x="306.0" y="530" width="4.2" height="10" fill="#e9b54e"/>
<rect x="310.0" y="530" width="4.2" height="10" fill="#e7b44d"/>
<rect x="314.0" y="530" width="4.2" height="10" fill="#e2b34f"/>
<rect x="318.0" y="530" width="4.2" height="10" fill="#ddb350"/>
<rect x="322.0" y="530" width="4.2" height="10" fill="#d8b252"/>
<rect x="326.0" y="530" width="4.2" height="10" fill="#d3b154"/>
<rect x="330.0" y="530" width="4.2" height="10" fill="#ceb155"/>
<rect x="334.0" y="530" width="4.2" height="10" fill="#cab057"/>
<rect x="338.0" y="530" width="4.2" height="10" fill="#c5b059"/>
<rect x="342.0" y="530" width="4.2" height="10" fill="#c0af5a"/>
<rect x="346.0" y="530" width="4.2" height="10" fill="#bbae5c"/>
<rect x="350.0" y="530" width="4.2" height="10" fill="#b6ae5e"/>
<rect x="354.0" y="530" width="4.2" height="10" fill="#b1ad60"/>
<rect x="358.0" y="530" width="4.2" height="10" fill="#adad61"/>
<rect x="362.0" y="530" width="4.2" height="10" fill="#a8ac63"/>
<rect x="366.0" y="530" width="4.2" height="10" fill="#a3ac65"/>
<rect x="370.0" y="530" width="4.2" height="10" fill="#9eab66"/>
<rect x="374.0" y="530" width="4.2" height="10" fill="#99aa68"/>
<rect x="378.0" y="530" width="4.2" height="10" fill="#94aa6a"/>
<rect x="382.0" y="530" width="4.2" height="10" fill="#90a96b"/>
<rect x="386.0" y="530" width="4.2" height="10" fill="#8ba96d"/>
<rect x="390.0" y="530" width="4.2" height="10" fill="#86a86f"/>
<rect x="394.0" y="530" width="4.2" height="10" fill="#81a770"/>
<rect x="398.0" y="530" width="4.2" height="10" fill="#7ca772"/>
<rect x="402.0" y="530" width="4.2" height="10" fill="#77a674"/>
<rect x="406.0" y="530" width="4.2" height="10" fill="#73a676"/>
<rect x="410.0" y="530" width="4.2" height="10" fill="#6ea577"/>
<rect x="414.0" y="530" width="4.2" height="10" fill="#69a579"/>
<rect x="418.0" y="530" width="4.2" height="10" fill="#64a47b"/>
<rect x="422.0" y="530" width="4.2" height="10" fill="#5fa37c"/>
<rect x="426.0" y="530" width="4.2" height="10" fill="#5aa37e"/>
<rect x="430.0" y="530" width="4.2" height="10" fill="#56a280"/>
<rect x="434.0" y="530" width="4.2" height="10" fill="#51a281"/>
<rect x="438.0" y="530" width="4.2" height="10" fill="#4ca183"/>
<rect x="442.0" y="530" width="4.2" height="10" fill="#47a085"/>
<rect x="446.0" y="530" width="4.2" height="10" fill="#42a087"/>
<rect x="450.0" y="530" width="4.2" height="10" fill="#3d9f88"/>
<rect x="454.0" y="530" width="4.2" height="10" fill="#399f8a"/>
<rect x="458.0" y="530" width="4.2" height="10" fill="#349e8c"/>
<rect x="462.0" y="530" width="4.2" height="10" fill="#2f9e8d"/>
<rect x="466.0" y="530" width="4.2" height="10" fill="#2a9d8f"/>
<text class="label" x="484" y="539">0% a 91%</text>
</svg>