<svg xmlns="http://www.w3.org/2000/svg" width="980" height="540" viewBox="0 0 980 540" role="img">
<style>
text{font-family:Arial,Helvetica,sans-serif;fill:#24313d}
.title{font-size:22px;font-weight:700}
.subtitle{font-size:12px;fill:#62707f}
.axis{stroke:#8996a3;stroke-width:1}
.grid{stroke:#d9e0e6;stroke-width:1}
.label{font-size:11px;fill:#62707f}
</style>
<rect width="980" height="540" fill="#fbfcfd"/>
<text class="title" x="28" y="32">Top 10 países por geração renovável</text>
<text class="subtitle" x="28" y="52">Ano mais recente disponível: 2025</text>
<text class="label" text-anchor="end" x="196" y="113">Spain</text>
<rect x="210" y="94" width="29.4" height="28" rx="3" fill="#2A9D8F"/>
<text class="label" x="247.4" y="113">167.2 TWh</text>
<text class="label" text-anchor="end" x="196" y="153">United Kingdom</text>
<rect x="210" y="134" width="33.9" height="28" rx="3" fill="#3A7CA5"/>
<text class="label" x="251.9" y="153">193.1 TWh</text>
<text class="label" text-anchor="end" x="196" y="193">Russia</text>
<rect x="210" y="174" width="36.5" height="28" rx="3" fill="#2A9D8F"/>
<text class="label" x="254.5" y="193">207.7 TWh</text>
<text class="label" text-anchor="end" x="196" y="233">Japan</text>
<rect x="210" y="214" width="52.3" height="28" rx="3" fill="#3A7CA5"/>
<text class="label" x="270.3" y="233">297.6 TWh</text>
<text class="label" text-anchor="end" x="196" y="273">Germany</text>
<rect x="210" y="254" width="60.8" height="28" rx="3" fill="#2A9D8F"/>
<text class="label" x="278.8" y="273">346.3 TWh</text>
<text class="label" text-anchor="end" x="196" y="313">Canada</text>
<rect x="210" y="294" width="75.1" height="28" rx="3" fill="#3A7CA5"/>
<text class="label" x="293.1" y="313">427.4 TWh</text>
<text class="label" text-anchor="end" x="196" y="353">India</text>
<rect x="210" y="334" width="92.0" height="28" rx="3" fill="#2A9D8F"/>
<text class="label" x="310.0" y="353">524.0 TWh</text>
<text class="label" text-anchor="end" x="196" y="393">Brazil</text>
<rect x="210" y="374" width="123.8" height="28" rx="3" fill="#3A7CA5"/>
<text class="label" x="341.8" y="393">705.1 TWh</text>
<text class="label" text-anchor="end" x="196" y="433">United States</text>
<rect x="210" y="414" width="211.6" height="28" rx="3" fill="#2A9D8F"/>
<text class="label" x="429.6" y="433">1.2 mil TWh</text>
<text class="label" text-anchor="end" x="196" y="473">China</text>
<rect x="210" y="454" width="726.0" height="28" rx="3" fill="#3A7CA5"/>
<text class="label" x="944.0" y="473">4.1 mil TWh</text>
<line class="axis" x1="210" y1="494" x2="936" y2="494"/>
</svg>